<svg width="995" height="828" viewBox="0 0 995 828" fill="none" xmlns="http://www.w3.org/2000/svg">
<path d="M529.779 297.8C531.786 300.811 549.58 311.005 551.6 313.026C557.648 319.076 567.646 313.945 575.958 318.101C580.238 320.242 590.611 317.148 592.196 315.562C592.47 315.288 596.831 313.601 597.271 314.041C599.84 316.61 602.58 318.335 605.389 321.146C608.096 323.852 608.265 329.095 610.972 331.803C617.338 338.171 627.718 329.264 630.254 326.728C631.353 325.627 634.229 326.305 635.329 325.204C643.371 317.162 653.586 312.528 661.208 304.906C663.756 302.358 668.989 302.708 671.358 300.339C672.794 298.903 681.199 298.309 683.029 298.309C683.756 298.309 687.133 297.846 687.596 298.309C694.757 305.47 702.417 308.593 709.676 315.853C717.103 323.28 720.627 336.417 727.685 343.475C730.341 346.131 735.779 348.016 738.341 350.578C738.573 350.811 743.69 350.811 743.922 350.578C745.529 348.971 748.912 349.142 750.519 347.535C754.277 343.776 758.835 341.249 762.19 337.891C763.692 336.391 762.441 333.074 763.713 331.803C769.651 325.865 765.12 310.604 770.818 304.906C774.756 300.965 783.848 303.039 787.562 299.324C787.838 299.05 793.885 299.05 794.161 299.324C796.528 301.692 800.926 302.031 803.294 304.399C805.915 307.021 807.777 310.404 810.398 313.026C811.671 314.299 810.582 318.791 811.92 320.131C813.638 321.847 818.021 329.749 815.473 334.848C814.642 336.508 812.336 342.275 813.95 345.505C817.759 353.122 820.666 363.383 826.13 368.849C827.651 370.37 831.204 369.864 832.726 371.385C833.652 372.311 840.405 371.385 841.861 371.385C853.39 371.385 857.211 364.155 862.665 358.698C863.132 358.233 864.581 349.449 863.68 348.55C861.821 346.689 861.99 342.797 860.128 340.936C856.486 337.296 852.65 331.429 848.964 327.743C847.266 326.043 849.209 319.868 847.442 318.101C846.828 317.485 844.09 307.751 845.921 305.921C847.696 304.145 850.233 303.13 852.009 301.354C853.723 299.64 858.56 300.893 860.128 299.324C861.058 298.394 864.272 299.747 865.203 298.817C867.969 296.052 872.098 294.459 874.845 291.712C875.393 291.162 880.671 284.345 879.919 283.592C876.944 280.618 872.931 278.635 869.77 275.473C867.798 273.5 863.862 274.132 861.65 271.92C859.783 270.053 854.414 270.774 852.517 268.875C846.07 262.431 839.976 254.812 833.233 248.07C828.41 243.247 825.56 233.289 820.548 228.277C817.863 225.592 818.972 219.598 816.488 217.112C810.634 211.258 807.31 202.858 801.264 196.813C798.981 194.531 792.892 196.053 790.607 193.768C785.858 189.018 776.062 187.68 766.758 187.68C764.037 187.68 758.597 187.213 757.117 188.695C756.55 189.26 752.423 188.695 751.534 188.695C749.026 188.695 736.89 191.811 734.789 189.71C727.497 182.418 721.673 177.608 715.505 171.44C713.337 169.272 707.547 170.586 705.357 168.394C703.242 166.281 696.814 168.48 694.701 166.364C691.258 162.924 673.773 165.351 667.805 165.351C663.863 165.351 655.224 164.231 653.089 166.364C652.397 167.058 649.216 166.179 648.522 166.873C645.165 170.23 637.839 171.948 631.269 171.948C628.762 171.948 617.134 173.544 615.538 171.948C613.743 170.152 608.78 171.786 606.912 169.918C604.145 167.151 568.71 163.828 564.793 163.828" fill="#D8D8D8"/>
<path d="M529.779 297.8C531.786 300.811 549.58 311.005 551.6 313.026C557.648 319.076 567.646 313.945 575.958 318.101C580.238 320.242 590.611 317.148 592.196 315.562C592.47 315.288 596.831 313.601 597.271 314.041C599.84 316.61 602.58 318.335 605.389 321.146C608.096 323.852 608.265 329.095 610.972 331.803C617.338 338.171 627.718 329.264 630.254 326.728C631.353 325.627 634.229 326.305 635.329 325.204C643.371 317.162 653.586 312.528 661.208 304.906C663.756 302.358 668.989 302.708 671.358 300.339C672.794 298.903 681.199 298.309 683.029 298.309C683.756 298.309 687.133 297.846 687.596 298.309C694.757 305.47 702.417 308.593 709.676 315.853C717.103 323.28 720.627 336.417 727.685 343.475C730.341 346.131 735.779 348.016 738.341 350.578C738.573 350.811 743.69 350.811 743.922 350.578C745.529 348.971 748.912 349.142 750.519 347.535C754.277 343.776 758.835 341.249 762.19 337.891C763.692 336.391 762.441 333.074 763.713 331.803C769.651 325.865 765.12 310.604 770.818 304.906C774.756 300.965 783.848 303.039 787.562 299.324C787.838 299.05 793.885 299.05 794.161 299.324C796.528 301.692 800.926 302.031 803.294 304.399C805.915 307.021 807.777 310.404 810.398 313.026C811.671 314.299 810.582 318.791 811.92 320.131C813.638 321.847 818.021 329.749 815.473 334.848C814.642 336.508 812.336 342.275 813.95 345.505C817.759 353.122 820.666 363.383 826.13 368.849C827.651 370.37 831.204 369.864 832.726 371.385C833.652 372.311 840.405 371.385 841.861 371.385C853.39 371.385 857.211 364.155 862.665 358.698C863.132 358.233 864.581 349.449 863.68 348.55C861.821 346.689 861.99 342.797 860.128 340.936C856.486 337.296 852.65 331.429 848.964 327.743C847.266 326.043 849.209 319.868 847.442 318.101C846.828 317.485 844.09 307.751 845.921 305.921C847.696 304.145 850.233 303.13 852.009 301.354C853.723 299.64 858.56 300.893 860.128 299.324C861.058 298.394 864.272 299.747 865.203 298.817C867.969 296.052 872.098 294.459 874.845 291.712C875.393 291.162 880.671 284.345 879.919 283.592C876.944 280.618 872.931 278.635 869.77 275.473C867.798 273.5 863.862 274.132 861.65 271.92C859.783 270.053 854.414 270.774 852.517 268.875C846.07 262.431 839.976 254.812 833.233 248.07C828.41 243.247 825.559 233.289 820.548 228.277C817.863 225.592 818.972 219.598 816.488 217.112C810.634 211.258 807.31 202.858 801.264 196.813C798.981 194.531 792.892 196.053 790.607 193.768C785.858 189.018 776.062 187.68 766.758 187.68C764.037 187.68 758.597 187.213 757.117 188.695C756.55 189.26 752.423 188.695 751.534 188.695C749.026 188.695 736.89 191.811 734.789 189.71C727.497 182.418 721.673 177.608 715.505 171.44C713.337 169.272 707.547 170.586 705.357 168.394C703.242 166.281 696.814 168.48 694.701 166.364C691.258 162.924 673.773 165.351 667.805 165.351C663.863 165.351 655.224 164.231 653.089 166.364C652.397 167.058 649.216 166.179 648.522 166.873C645.165 170.23 637.839 171.948 631.269 171.948C628.762 171.948 617.134 173.544 615.538 171.948C613.743 170.152 608.78 171.786 606.912 169.918C604.145 167.151 568.71 163.828 564.793 163.828" stroke="black"/>
<path d="M362.947 780.38C383.612 773.856 386.109 763.918 399.474 750.819C404.92 745.483 404.434 736.606 409.926 731.223C415.309 725.953 415.263 714.566 420.38 709.548C428.949 701.15 430.465 680.022 438.972 671.683C440.903 669.795 440.333 660.351 442.318 658.405C451.518 649.389 450.129 626.798 458.419 618.671C461.379 615.772 457.571 602.879 460.529 599.982C469.923 590.775 458.109 570.737 467.501 561.531C471.265 557.842 468.039 545.417 471.699 541.827C482.345 531.394 477.213 503.173 488.449 492.16C491.086 489.576 489.077 479.507 490.558 476.585C498.86 460.19 498.867 440.459 507.311 423.798C508.247 421.947 512.558 399.947 512.558 399.947C512.558 399.947 504.734 403.458 504.211 403.968C495.704 412.305 480.947 412.223 472.92 420.092C472.004 420.988 453.162 427.494 452.072 426.384C444.786 418.977 445.853 397.776 438.564 390.37C434.576 386.315 438.415 374.585 434.427 370.527C429.407 365.424 434.731 351.039 429.249 345.463C424.138 340.263 420.381 335.403 415.722 330.664C398.774 313.437 369.915 339.65 354.841 339.395C352.354 339.353 335.286 339.551 331.285 335.483C329.918 334.087 315.674 317.526 315.674 317.526C315.674 317.526 322.97 319.588 322.97 319.731C322.966 324.155 309.473 318.48 307.338 320.573C294.804 332.857 285.994 352.849 274.961 363.666C271.827 366.735 273.901 375.097 270.767 378.163C261.723 387.031 263.083 406.478 254.04 415.345C247.311 421.938 228.35 429.479 218.579 429.314C216.691 429.282 208.351 434.545 206.064 432.226C181.718 407.468 202.007 356.971 202.057 322.886C202.066 316.125 197.107 303.265 192.71 298.792C192.133 298.209 180.718 298.079 180.201 298.581C176.028 302.676 176.014 310.999 171.839 315.092C169.926 316.969 172.696 323.604 170.783 325.479C163.958 332.17 167.211 344.568 161.365 350.297C159.972 351.661 162.747 357.256 161.355 358.622C156.864 363.022 161.052 375.544 156.11 380.387C143.04 393.194 156.305 424.275 143.604 436.724C142.038 438.257 136.737 444.061 135.168 445.596C130.381 450.287 134.63 465.868 129.92 470.481C126.269 474.063 129.377 484.523 125.725 488.101C113.722 499.865 123.054 533.324 111.05 545.089C108.267 547.818 111.727 556.895 108.946 559.623C99.03 569.344 107.325 597.58 97.4108 607.301C94.7997 609.859 97.914 618.235 95.3066 620.793C90.3596 625.638 89.6315 638.511 85.0761 642.974C84.0752 643.956 84.3698 670.546 86.4942 672.706C91.8732 678.171 89.8383 691.537 95.2191 697.006C102.505 704.417 109.405 708.082 117.053 715.861C126.989 725.965 142.037 729.797 152.456 740.397C157.458 745.481 167.446 745.215 172.247 750.098C173.811 751.686 179.025 749.691 180.584 751.279C186.425 757.213 198.852 755.262 205.584 762.108C208.91 765.49 219.371 760.495 222.263 763.429C230.424 771.731 250.416 770.175 258.719 778.616C263.557 783.538 282.575 775.839 288.946 779.128C302.16 785.955 326.146 782.881 343.142 783.169C345.969 783.217 359.061 785.232 360.861 783.469C361.616 782.73 368.587 779.437 369.206 779.447" fill="#C79500"/>
<path d="M170.292 275.123C174.043 261.588 202.758 246.319 206.933 218.447C207.314 215.906 207.43 204.965 209.246 203.149C216.013 196.381 220.612 187.197 227.851 179.957C233.663 174.143 242.747 171.601 248.559 165.787C256.567 157.779 296.011 172.861 306.326 167.703C317.521 162.106 315.262 158.157 328.125 158.157C330.73 158.157 342.816 159.815 344.473 158.157C354.066 148.564 376.284 147.054 385.891 137.448C387.106 136.231 395.97 137.448 397.88 137.448C406.045 137.448 418.363 145.51 424.037 148.348C437.687 155.174 444.313 174.074 454.555 184.317C458.915 188.677 470.167 185.029 474.526 189.389C475.799 190.662 493.184 188.152 494.455 186.879C500.285 181.051 499.937 182.975 507.287 179.3C513.191 176.348 514.326 175.302 518.415 171.213C521.14 168.487 524.812 156.398 527.537 153.672C539.88 141.328 540.703 109.528 553.031 97.1992C553.977 96.2532 580.139 104.989 580.987 105.839C583.095 107.945 590.375 112.267 592.871 114.763C594.505 116.398 597.877 144.537 590.796 151.617C588.906 153.507 589.196 158.669 587.526 160.338C579.175 168.689 577.372 180.678 569.465 188.586C565.26 192.791 558.099 202.697 558.099 210.477C558.099 212.56 559.424 222.231 558.099 223.556C555.918 225.735 559.188 233.365 557.009 235.546C546.625 245.929 558.228 273.265 547.548 283.946C542.978 288.514 545.905 301.408 541.129 306.184C539.907 307.406 540.031 313.264 539.226 314.871C533.778 325.769 535.967 342.698 528.67 349.993C521.316 357.347 522.842 375.444 514.502 383.783C503.439 394.847 494.194 408.382 482.533 420.041C480.173 422.404 465.636 423.591 463.274 425.952C455.469 433.759 445.357 415.663 444.057 413.063C440.805 406.559 442.966 392.574 442.966 384.933C442.966 370.158 436.002 353.167 428.108 345.274C416.041 333.205 381.27 321.914 367.362 335.825C365.908 337.277 337.354 340.695 334.663 338.004C331.758 335.099 325.581 335.462 322.674 332.555C319.987 329.867 318.558 325.168 316.136 322.744C315.243 321.852 307.711 316.666 304.147 320.231C291.742 332.636 300.229 332.119 289.373 342.977C284.766 347.584 284.821 355.907 279.697 361.032C276.37 364.358 274.433 376.918 271.315 380.036C268.227 383.124 263.637 393.776 260.548 396.864C256.712 400.701 253.122 410.628 250.74 415.393C245.976 424.924 218.958 443.085 207.209 431.335C199.902 424.029 201.624 399.806 201.624 386.576C201.624 369.025 208.233 359.152 208.233 342.364C208.233 337.593 209.749 326.441 207.143 323.835C204.6 321.291 207.507 313.298 204.963 310.754C201.148 306.939 175.588 297.677 171.774 293.862C169.152 291.238 169.691 276.078 166.811 276.078" fill="#D8D8D8"/>
<path d="M170.292 275.123C174.043 261.588 202.758 246.319 206.933 218.447C207.314 215.906 207.43 204.965 209.246 203.149C216.013 196.381 220.612 187.197 227.851 179.957C233.663 174.143 242.747 171.601 248.559 165.787C256.567 157.779 296.011 172.861 306.326 167.703C317.521 162.106 315.262 158.157 328.125 158.157C330.73 158.157 342.816 159.815 344.473 158.157C354.066 148.564 376.284 147.054 385.891 137.448C387.106 136.231 395.97 137.448 397.88 137.448C406.045 137.448 418.363 145.51 424.037 148.348C437.687 155.174 444.313 174.074 454.555 184.317C458.915 188.677 470.167 185.029 474.526 189.389C475.799 190.662 493.184 188.152 494.455 186.879C500.285 181.051 499.937 182.975 507.287 179.3C513.191 176.348 514.326 175.302 518.415 171.213C521.14 168.487 524.812 156.398 527.537 153.672C539.88 141.328 540.703 109.528 553.031 97.1992C553.977 96.2532 580.139 104.989 580.987 105.839C583.095 107.945 590.375 112.267 592.871 114.763C594.505 116.398 597.877 144.537 590.796 151.617C588.906 153.507 589.196 158.669 587.526 160.338C579.175 168.689 577.372 180.678 569.465 188.586C565.26 192.791 558.099 202.697 558.099 210.477C558.099 212.56 559.424 222.231 558.099 223.556C555.918 225.735 559.188 233.365 557.009 235.546C546.625 245.929 558.228 273.265 547.548 283.946C542.978 288.514 545.905 301.408 541.129 306.184C539.907 307.406 540.031 313.264 539.226 314.871C533.778 325.769 535.967 342.698 528.67 349.993C521.316 357.347 522.842 375.444 514.502 383.783C503.439 394.847 494.194 408.382 482.533 420.041C480.173 422.404 465.636 423.591 463.274 425.952C455.468 433.759 445.357 415.663 444.057 413.063C440.805 406.559 442.966 392.574 442.966 384.933C442.966 370.158 436.002 353.167 428.108 345.274C416.041 333.205 381.27 321.914 367.362 335.825C365.908 337.277 337.354 340.695 334.663 338.004C331.758 335.099 325.581 335.462 322.674 332.555C319.987 329.867 318.558 325.168 316.136 322.744C315.243 321.852 307.711 316.666 304.147 320.231C291.742 332.636 300.229 332.119 289.373 342.977C284.766 347.584 284.821 355.907 279.697 361.032C276.37 364.358 274.433 376.918 271.315 380.036C268.227 383.124 263.637 393.776 260.548 396.864C256.712 400.701 253.122 410.628 250.74 415.393C245.976 424.924 218.958 443.085 207.209 431.335C199.902 424.029 201.624 399.806 201.624 386.576C201.624 369.025 208.233 359.152 208.233 342.364C208.233 337.593 209.749 326.441 207.143 323.835C204.6 321.291 207.507 313.298 204.963 310.754C201.148 306.939 175.588 297.677 171.774 293.862C169.152 291.238 169.691 276.078 166.811 276.078" stroke="black"/>
<path d="M99.5599 572.103C91.4074 569.386 80.6349 567.033 75.1479 561.546C73.5047 559.904 68.5079 559.525 66.5706 557.587C63.128 554.143 55.6564 553.93 52.0559 550.329C48.5589 546.834 44.8367 538.53 42.1586 533.174C41.8045 532.466 35.2226 531.841 34.6035 531.224C32.1995 528.821 21.5595 511.266 28.8713 507.319C30.1024 506.654 30.5291 513.939 29.5395 512.95C26.6362 510.046 31.3062 499.295 28.234 496.224C24.944 492.932 32.2612 482.864 32.2612 477.09C32.2612 458.071 33.2381 439.822 42.8177 430.242C46.2021 426.858 45.0782 418.745 48.0977 415.725C49.307 414.514 47.9724 410.572 49.4159 409.126C54.2674 404.275 53.1199 392.227 57.9932 387.353C62.5179 382.828 60.0268 370.143 64.5915 365.578C67.7744 362.397 66.3945 355.197 69.8697 351.722C70.97 350.623 69.4303 346.885 70.5288 345.784C77.8587 338.454 80.3953 324.04 87.6835 316.752C99.6362 304.8 117.35 290.359 140.467 290.359C143.18 290.359 159.576 287.035 162.239 289.7C164.11 291.569 176.756 295.529 176.756 297.617C176.756 303.709 176.099 314.771 172.796 318.072C171.147 319.721 174.446 326.319 172.796 327.97C169.502 331.264 169.653 339.03 166.199 342.485C162.57 346.115 148.714 339.516 145.085 343.144C141.237 346.994 126.501 339.956 122.654 343.805C120.344 346.115 113.746 344.134 111.436 346.444C109.688 348.194 109.081 352.098 106.817 354.362C103.407 357.772 105.906 366.492 102.2 370.198C93.9984 378.398 96.0865 398.086 87.6835 406.488C84.7148 409.457 86.0348 416.715 83.0662 419.685C79.649 423.101 81.2486 432.719 77.7879 436.18C76.6876 437.28 78.2273 441.019 77.127 442.117C72.1357 447.111 77.6699 463.35 72.5097 468.512C71.2986 469.721 73.058 473.899 71.8488 475.11C70.97 475.989 72.0685 478.849 71.1897 479.728C69.5211 481.397 66.5324 502.124 69.8697 505.461C74.654 510.244 79.2822 514.215 84.3843 519.318C89.047 523.979 97.884 523.581 102.859 528.555C104.041 529.737 110.637 535.834 110.637 538.031C110.637 544.855 105.198 557.228 101.539 560.886C101.012 561.415 100.221 570.123 100.221 570.123C100.221 570.123 103.144 562.207 103.518 562.207" fill="#E8D088"/>
<path d="M99.5599 572.103C91.4074 569.386 80.6349 567.033 75.1479 561.546C73.5047 559.904 68.5079 559.525 66.5706 557.587C63.128 554.143 55.6564 553.93 52.0559 550.329C48.5589 546.834 44.8367 538.53 42.1586 533.174C41.8045 532.466 35.2226 531.841 34.6035 531.224C32.1995 528.821 21.5595 511.266 28.8713 507.319C30.1024 506.654 30.5291 513.939 29.5395 512.95C26.6362 510.046 31.3062 499.295 28.234 496.224C24.944 492.932 32.2612 482.864 32.2612 477.09C32.2612 458.071 33.2381 439.822 42.8177 430.242C46.2021 426.858 45.0782 418.745 48.0977 415.725C49.307 414.514 47.9724 410.572 49.4159 409.126C54.2674 404.275 53.1199 392.227 57.9932 387.353C62.5179 382.828 60.0268 370.143 64.5915 365.578C67.7744 362.397 66.3945 355.197 69.8697 351.722C70.97 350.623 69.4303 346.885 70.5288 345.784C77.8587 338.454 80.3953 324.04 87.6835 316.752C99.6362 304.8 117.35 290.359 140.467 290.359C143.18 290.359 159.576 287.035 162.239 289.7C164.11 291.569 176.756 295.529 176.756 297.617C176.756 303.709 176.099 314.771 172.796 318.072C171.147 319.721 174.446 326.319 172.796 327.97C169.502 331.264 169.653 339.03 166.199 342.485C162.57 346.115 148.714 339.516 145.085 343.144C141.237 346.994 126.501 339.956 122.654 343.805C120.344 346.115 113.746 344.134 111.436 346.444C109.688 348.194 109.081 352.098 106.817 354.362C103.407 357.772 105.906 366.492 102.2 370.198C93.9984 378.398 96.0865 398.086 87.6835 406.488C84.7148 409.457 86.0348 416.715 83.0661 419.685C79.649 423.101 81.2486 432.719 77.7879 436.18C76.6876 437.28 78.2273 441.019 77.127 442.117C72.1357 447.111 77.6699 463.35 72.5097 468.512C71.2986 469.721 73.058 473.899 71.8488 475.11C70.97 475.989 72.0685 478.849 71.1897 479.728C69.5211 481.397 66.5324 502.124 69.8697 505.461C74.654 510.244 79.2822 514.215 84.3843 519.318C89.047 523.979 97.884 523.581 102.859 528.555C104.041 529.737 110.637 535.834 110.637 538.031C110.637 544.855 105.198 557.228 101.539 560.886C101.012 561.415 100.221 570.123 100.221 570.123C100.221 570.123 103.144 562.207 103.518 562.207" stroke="black"/>
<path d="M882.817 567.269C882.817 570.167 880.896 584.987 882.817 586.909C884.408 588.499 896.455 583.744 897.219 582.981C905.737 574.465 916.268 567.207 925.368 558.103C926.793 556.677 930.47 556.274 931.916 554.829C942.352 544.39 951.164 529.03 962.027 518.168C965.417 514.778 965.141 506.545 968.574 503.112C969.446 502.238 967.701 498.747 968.574 497.873C971.503 494.946 971.743 468.86 969.228 463.831C965.635 456.644 969.306 446.312 965.956 439.61C963.256 434.21 963.815 425.685 960.064 421.933C958.951 420.82 960.522 415.845 959.409 414.732C957.226 412.549 957.664 407.748 955.481 405.566C948.865 398.951 945.479 389.67 939.117 383.308C937.579 381.77 938.082 379.001 936.497 377.415C932.802 373.722 928.626 370.2 924.715 366.287C921.434 363.005 914.336 362.455 910.966 359.085C908.086 356.205 900.284 356.913 897.219 353.848C896.019 352.648 891.874 354.393 890.674 353.193C889.813 352.332 874.97 346.638 871.689 349.921C868.199 353.411 866.67 358.867 863.179 362.359C861.441 364.097 862.08 368.696 860.561 370.214C858.814 371.961 851.833 368.469 850.086 370.214C847.529 372.773 842.367 372.696 839.613 375.453C839.17 375.894 832.819 384.37 835.684 387.235C838.346 389.897 837.347 396.1 840.267 399.02C841.685 400.438 847.359 397.602 848.777 399.02C850.277 400.52 856.49 399.675 859.251 399.675C868.049 399.675 883.338 396.267 888.709 401.638C900.72 413.648 913.406 416.07 922.114 437.587C925.679 446.396 926.768 460.738 931.916 471.032C939.298 485.804 928.115 500.363 921.441 507.039C915.585 512.897 910.225 521.527 903.765 527.988C895.108 536.649 884.949 540.913 876.272 549.592C874.612 551.254 877.107 557.157 877.581 558.103C881.347 565.635 872.504 579.052 882.817 579.052" fill="#E8D088"/>
<path d="M882.817 567.269C882.817 570.167 880.896 584.987 882.817 586.909C884.408 588.499 896.455 583.744 897.219 582.981C905.737 574.465 916.268 567.207 925.368 558.103C926.793 556.677 930.47 556.274 931.916 554.829C942.352 544.39 951.164 529.03 962.027 518.168C965.417 514.778 965.141 506.545 968.574 503.112C969.446 502.238 967.701 498.747 968.574 497.873C971.503 494.946 971.743 468.86 969.228 463.831C965.635 456.644 969.306 446.312 965.956 439.61C963.256 434.21 963.815 425.685 960.064 421.933C958.951 420.82 960.522 415.845 959.409 414.732C957.226 412.549 957.664 407.748 955.481 405.566C948.865 398.951 945.479 389.67 939.117 383.308C937.579 381.77 938.082 379.001 936.497 377.415C932.802 373.722 928.626 370.2 924.715 366.287C921.434 363.005 914.336 362.455 910.966 359.085C908.086 356.205 900.284 356.913 897.219 353.848C896.019 352.648 891.874 354.393 890.674 353.193C889.813 352.332 874.97 346.638 871.689 349.921C868.199 353.411 866.67 358.867 863.179 362.359C861.441 364.097 862.08 368.696 860.561 370.214C858.814 371.961 851.833 368.469 850.086 370.214C847.529 372.773 842.367 372.696 839.613 375.453C839.17 375.894 832.819 384.37 835.684 387.235C838.346 389.897 837.347 396.1 840.267 399.02C841.685 400.438 847.359 397.602 848.777 399.02C850.277 400.52 856.49 399.675 859.251 399.675C868.049 399.675 883.338 396.267 888.709 401.638C900.72 413.648 913.406 416.07 922.114 437.587C925.679 446.396 926.768 460.738 931.916 471.032C939.298 485.804 928.115 500.363 921.441 507.039C915.585 512.897 910.225 521.527 903.765 527.988C895.108 536.649 884.949 540.913 876.272 549.592C874.612 551.254 877.107 557.157 877.581 558.103C881.347 565.635 872.504 579.052 882.817 579.052" stroke="black"/>
<path d="M518.94 421.136C518.94 425.676 521.1 428.528 523.802 431.23C524.668 432.096 523.802 438.419 523.802 439.779C523.802 445.909 524.657 452.346 524.657 459.442C524.657 473.002 523.599 498.565 530.642 505.607C533.206 508.172 531.495 515.011 534.061 517.576C535.343 518.858 532.779 523.988 534.061 525.27C540.581 531.79 533.262 552.683 540.044 559.467C541.866 561.288 540.044 574.558 540.044 577.419C540.044 592.668 539.19 610.456 539.19 627.003C539.19 629.73 537.454 642.366 539.19 644.102C544.759 649.673 542.032 664.897 547.738 670.604C550.271 673.137 547.121 681.956 549.447 684.282C554.936 689.771 554.159 704.383 559.706 709.93C564.63 714.853 562.803 725.851 567.401 730.447C571.39 734.438 565.981 743.228 569.97 747.217C571.11 748.356 573.098 753.246 574.238 754.384C577.038 757.184 574.6 765.86 577.657 768.918C582.529 773.79 594.705 779.302 597.374 784.639C601.606 793.106 608.624 795.61 614.418 801.404C618.496 805.482 629.563 808.938 635.456 807.195C640.954 805.569 678.875 810.548 702.662 812.001C707.726 812.31 718.995 813.091 722.296 809.789C727.539 804.545 757.288 811.725 762.809 806.203C766.795 802.218 777.476 802.483 781.789 798.17C785.825 794.132 800.002 799.784 804.527 795.259C807.092 792.694 818.371 790.989 820.937 788.425C826.121 783.239 828.521 787.112 836.503 783.121C840.103 781.32 843.273 777.724 845.739 775.259C851.152 769.844 856.74 776.221 862.155 770.806C873.145 759.817 880.225 757.148 891.68 745.694C899.193 738.18 901.895 723.265 908.391 716.768C910.245 714.916 906.49 709.216 908.342 707.364C912.054 703.653 910.982 692.76 910.2 691.977C908.918 690.694 910.627 686.419 909.345 685.137C903.743 679.536 908.933 669.781 905.071 662.055C899.5 650.913 900.766 635.935 895.366 625.136C892.203 618.81 895.028 608.738 890.055 603.763C888.059 601.769 890.431 596.512 888.435 594.517C880.884 586.967 887.83 570.438 880.279 562.886C876.005 558.611 881.134 544.933 876.86 540.659C875.907 539.705 872.019 534.044 872.019 532.546C872.019 528.126 867.023 513.807 863.969 510.754C856.795 503.578 867.235 484.015 859.764 476.539C858.053 474.831 857.271 467.486 855.562 465.777C850.798 461.013 855.366 450.514 849.577 444.725C846.761 441.909 849.908 431.925 846.985 429.002C845.325 427.342 843.181 416.319 843.181 413.508C843.181 409.415 848.285 400.069 845.231 398.744C824.009 389.538 839.123 385.218 836.986 383.081C834.611 380.706 842.947 380.217 840.957 378.225C838.061 375.331 832.032 374.432 828.988 371.387C825.516 367.915 824.514 361.783 821.294 358.564C816.842 354.112 815.775 340.994 814.707 334.801C813.126 325.616 809.732 314.31 803.294 307.475C798.317 302.193 792 298.948 782.825 297.864C778.814 297.39 772.193 299.948 771.711 300.43C767.06 305.082 765.761 307.239 761.489 311.51C758.012 314.987 765.442 333.021 761.344 337.119C757.13 341.334 755.396 344.922 748.63 348.305C746.944 349.147 735.917 355.252 732.389 351.724C729.182 348.517 724.106 348.572 721.275 345.739C716.238 340.704 723.999 338.841 719.412 334.254C711.812 326.653 707.352 312.973 699.69 305.309C698.125 303.743 668.261 293.976 664.264 297.971C658.093 304.145 650.225 308.666 643.761 315.13C641.328 317.563 637.477 321.604 635.184 323.899C631.854 327.229 628.776 331.296 622.08 331.296C616.679 331.296 610.48 331.165 607.457 328.142C604.036 324.723 603.197 318.163 599.778 314.743C594.883 309.848 568.506 323.232 563.978 318.706C563.052 317.779 546.231 308.695 546.079 309.136C538.814 330.234 528.345 372.228 504.77 390.834C495.134 398.44 504.185 395.052 504.185 406.375C504.185 410.089 524.657 438.07 524.657 438.07" fill="#C79500"/>
<path d="M514.146 166.241C507.172 159.268 502.31 152.299 495.904 145.891C492.367 142.356 484.788 143.197 481.869 140.277C477.191 135.6 476.316 133.068 471.637 128.389C464.72 121.471 452.798 112.61 446.083 105.893C441.967 101.777 434.02 101.55 429.944 97.4734C423.476 91.0037 416.308 85.9395 410.298 79.9292C407.54 77.1711 409.236 71.1499 406.788 68.7022C404.304 66.2164 404.684 59.4998 404.684 54.668C404.684 41.6669 405.217 29.5738 411.701 23.0896C415.427 19.3636 423.647 20.2642 427.138 16.7743C430.592 13.3188 439.287 13.9671 446.083 13.9671C447.089 13.9671 451.759 13.3279 452.398 13.9671C454.855 16.4238 461.871 14.3175 464.327 16.7743C470.334 22.7809 475.147 29.4194 480.834 35.1047C486.591 40.8625 484.948 48.2964 490.286 53.6348C492.156 55.5069 489.527 60.8871 491.399 62.7573C493.269 64.6294 493.244 71.0409 495.116 72.913C501.413 79.2102 494.638 89.6528 501.137 96.1515C502.484 97.497 506.657 101.296 508.198 102.837C511.359 105.999 510.264 110.353 513.315 113.403C515.642 115.731 518.037 118.914 520.042 120.919C520.637 121.516 525.945 132.809 525.945 132.809C525.945 132.809 530.495 140.021 530.495 143.13" fill="#D8D8D8"/>
<path d="M514.146 166.241C507.172 159.268 502.31 152.299 495.904 145.891C492.367 142.356 484.788 143.197 481.869 140.277C477.191 135.6 476.316 133.068 471.637 128.389C464.719 121.471 452.798 112.61 446.083 105.893C441.967 101.777 434.02 101.55 429.944 97.4734C423.476 91.0037 416.308 85.9395 410.298 79.9292C407.54 77.1711 409.236 71.1499 406.788 68.7022C404.304 66.2164 404.684 59.4998 404.684 54.668C404.684 41.6669 405.217 29.5738 411.701 23.0896C415.427 19.3636 423.647 20.2642 427.138 16.7743C430.592 13.3188 439.287 13.9671 446.083 13.9671C447.089 13.9671 451.759 13.3279 452.398 13.9671C454.855 16.4238 461.871 14.3175 464.327 16.7743C470.334 22.7809 475.147 29.4194 480.834 35.1047C486.591 40.8625 484.948 48.2964 490.286 53.6348C492.156 55.5069 489.527 60.8871 491.399 62.7573C493.269 64.6294 493.244 71.0409 495.116 72.913C501.413 79.2102 494.638 89.6528 501.137 96.1515C502.484 97.497 506.657 101.296 508.198 102.837C511.359 105.999 510.264 110.353 513.315 113.403C515.642 115.731 518.037 118.914 520.042 120.919C520.637 121.516 525.945 132.809 525.945 132.809C525.945 132.809 530.495 140.021 530.495 143.13" stroke="black"/>
<path d="M426.138 10.172C413.065 15.0746 403.26 25.243 399.81 37.2272C396.179 49.0298 396.179 53.3878 399.447 65.7351C404.168 82.9851 410.523 89.7036 439.029 107.135C456.46 117.848 463.178 123.477 484.421 145.085C498.221 159.067 509.478 170.869 509.478 171.414C509.296 173.956 494.952 182.672 486.6 185.396C478.611 187.756 475.706 187.938 469.896 186.304C459.365 183.035 453.918 177.951 442.842 160.701C425.774 134.19 419.601 129.651 399.265 129.651C382.924 129.651 377.114 131.467 346.792 145.267C332.629 151.622 315.562 158.34 308.844 159.975C297.95 162.698 295.044 162.698 282.698 160.519C264.904 157.251 255.826 157.614 240.937 162.517C231.495 165.785 226.956 168.69 218.785 176.68C207.891 187.756 203.352 197.38 201.355 214.993C200.084 226.614 196.997 233.696 189.916 241.322C177.932 254.214 166.312 271.646 165.222 278.364L164.133 285.264L143.797 285.083C125.277 284.901 122.735 285.264 112.749 289.985C86.2398 302.333 69.1722 329.025 48.2918 390.943C35.945 427.44 24.6877 472.654 23.4168 490.267C21.7826 514.961 30.6795 536.751 48.8365 551.64C59.0044 559.993 83.3346 573.975 90.2343 575.427C93.1394 576.154 95.4998 577.788 95.4998 579.24C95.4998 580.693 91.5053 595.401 86.4213 611.925C78.977 636.256 77.3429 644.427 77.3429 655.14C77.3429 681.469 87.5107 701.988 109.844 721.235C135.808 743.751 155.236 754.283 193.184 766.993C236.398 781.338 269.08 786.422 323.551 787.33L361.68 787.875L375.48 780.975C404.712 766.63 421.961 739.211 443.75 672.572C459.728 623.364 465.357 603.754 477.522 555.454C489.687 506.427 496.405 481.369 502.215 462.848C504.031 456.856 507.299 445.961 509.478 438.517C514.017 423.083 516.741 423.809 516.741 440.151C516.741 445.598 517.83 460.306 519.283 472.835C520.735 485.364 522.732 504.43 523.822 515.506C535.806 634.985 551.965 734.309 563.222 756.28C571.393 772.622 599.355 796.409 622.414 806.759C641.479 815.293 651.102 816.927 683.785 816.927C748.242 816.746 798.718 804.761 859.181 774.801C886.598 761.364 891.681 756.643 902.394 735.58C910.565 719.601 911.473 716.877 912.199 702.896C913.107 685.827 911.473 676.204 898.763 623.909C894.405 605.751 890.774 590.135 890.774 589.227C890.774 588.319 895.858 585.233 902.212 582.146C934.35 567.075 963.038 533.301 973.206 498.438C977.382 484.275 977.019 457.946 972.48 439.606C967.759 420.904 953.415 391.851 941.431 376.961C921.64 352.267 902.757 342.461 879.698 344.64C869.53 345.73 867.17 345.548 867.17 343.369C867.17 341.917 862.267 335.198 856.275 328.48C843.929 314.498 841.75 306.69 849.739 304.693C852.281 304.148 855.912 304.148 857.91 304.875C864.264 306.872 878.064 303.785 883.692 299.064C887.505 295.796 888.958 292.89 888.958 288.714C888.958 281.269 885.327 277.819 871.164 272.372C845.2 262.204 833.398 249.493 825.227 223.164C815.785 192.296 788.005 178.314 752.962 186.667C739.526 189.754 737.347 189.027 730.266 178.859C724.274 170.143 713.925 163.061 703.031 160.156C693.045 157.432 675.069 159.975 654.189 166.875C631.856 174.138 610.612 173.048 600.807 163.788C596.994 160.156 596.994 159.975 600.081 152.53C610.249 128.743 603.531 106.227 583.377 96.0588C560.499 84.8009 541.071 93.5167 533.627 118.756C532.174 123.659 530.358 127.835 529.451 127.835C526.727 127.835 514.925 110.404 509.659 98.4194C506.754 92.0641 501.489 77.5378 498.039 66.0983C482.243 15.8009 459.002 -2.53857 426.138 10.172ZM461.362 23.7904C469.714 29.601 478.248 45.5799 488.597 73.9062C501.307 109.314 504.939 116.214 517.285 128.561C527.816 139.275 527.998 139.456 526.001 145.811C523.64 153.801 517.467 164.151 515.107 164.151C514.199 164.151 507.844 157.977 500.944 150.169C472.801 118.575 457.368 105.682 433.945 93.6983C415.788 84.4377 407.981 72.6351 407.799 54.6588C407.799 38.1351 413.972 27.422 426.864 21.4299C435.034 17.6167 454.644 18.8878 461.362 23.7904ZM579.564 107.135C592.274 114.398 596.087 128.743 590.095 146.538C588.461 151.259 581.198 163.243 573.935 173.23C559.228 193.385 557.594 198.106 555.778 225.888C554.689 243.864 548.334 268.196 545.066 267.106C543.976 266.743 542.342 264.019 541.616 260.932C539.618 254.033 531.993 244.409 530.177 246.406C529.269 247.314 530.54 252.943 532.9 259.117C541.071 280.906 541.253 282.359 536.895 304.511C529.632 341.19 524.185 354.99 505.12 382.954C485.511 412.006 468.08 426.169 455.915 423.083C450.105 421.63 448.289 415.275 444.839 384.951C441.753 357.714 437.576 343.551 430.314 334.835C425.774 329.388 425.774 325.756 430.495 325.756C431.948 325.756 433.4 325.03 433.945 324.122C434.49 323.214 431.766 323.396 427.772 324.304C422.869 325.575 418.875 325.575 414.88 324.122C402.17 319.764 384.195 323.033 363.859 333.201C353.147 338.648 344.613 339.738 338.984 336.833C337.169 335.743 333.537 329.751 330.814 323.396C325.003 309.414 320.101 306.146 311.023 310.14C298.494 315.406 289.053 329.388 264.359 378.233C245.839 414.911 237.669 425.443 224.777 429.438C215.699 432.161 212.794 431.072 208.799 423.627C204.623 415.456 204.805 381.864 208.981 356.806C212.975 332.475 212.249 313.409 206.62 305.964C204.441 302.877 202.626 299.972 202.626 299.427C202.626 298.883 207.347 298.519 213.157 298.338H223.506L216.243 295.614C211.704 293.798 205.531 293.254 199.902 293.798C187.555 295.069 172.848 290.167 172.122 284.538C171.214 277.819 177.206 267.833 190.824 253.125C198.086 245.498 204.805 237.69 205.894 235.693C208.073 231.698 207.71 231.335 214.246 242.775C216.97 247.677 219.512 251.309 219.875 250.946C220.419 250.583 218.967 245.135 217.151 238.78C212.612 224.254 212.612 212.269 217.151 199.922C221.69 187.575 230.406 178.677 243.297 172.504C254.736 167.056 261.091 166.693 275.253 170.506C286.874 173.593 301.763 173.956 313.383 171.414C317.922 170.325 334.445 163.243 350.242 155.617C377.114 142.725 379.837 141.635 393.274 140.909C411.249 139.819 416.696 142.906 428.861 160.156C447.381 186.667 457.912 193.93 476.795 193.93C485.692 194.111 491.139 192.84 498.765 189.209C520.372 179.222 531.629 163.061 539.618 131.104C545.792 106.046 551.784 99.5088 566.672 101.869C569.759 102.414 575.569 104.775 579.564 107.135ZM612.428 179.948C615.333 180.856 623.685 181.401 631.129 181.219C642.205 181.219 647.471 179.948 659.273 175.046C677.611 167.601 697.947 165.604 707.57 170.506C717.012 175.409 732.808 187.575 732.808 190.117C732.808 191.569 728.269 194.475 722.64 196.654C711.383 201.375 701.941 208.638 701.941 212.451C701.941 215.901 702.305 215.901 714.47 208.093C729.358 198.469 744.429 194.293 764.583 194.111C778.927 194.111 782.195 194.838 791.274 199.196C804.71 205.732 809.249 211.361 815.422 228.975C824.319 254.577 838.663 268.74 864.628 277.456C878.79 282.359 882.421 285.99 877.519 290.711C875.34 293.072 870.075 294.161 859.544 295.069C842.839 296.159 838.118 299.609 838.118 310.14C838.118 315.769 839.571 318.493 850.647 333.927C858.636 345.185 860.088 355.172 854.278 361.346C848.286 367.701 838.118 370.425 831.764 367.338C823.048 362.98 820.143 356.988 818.872 341.19C816.512 311.048 801.441 293.072 778.382 293.072C770.575 293.072 768.759 293.798 764.764 298.701C760.407 303.785 760.044 305.601 760.044 320.672C760.044 336.106 759.862 337.196 754.96 342.098C752.055 345.004 746.608 347.909 742.976 348.635C732.99 350.451 727.906 345.911 718.283 325.938C706.299 301.243 695.223 293.072 673.617 293.072C661.27 293.072 651.102 298.701 638.755 312.138C621.506 331.204 615.514 332.475 606.799 318.675C601.352 310.14 596.087 308.688 584.648 312.138C566.491 317.585 557.775 315.043 551.239 302.151C546.337 292.527 546.518 290.167 553.962 273.28C562.315 254.396 565.764 240.414 567.399 218.625C568.851 199.014 570.485 195.383 586.645 175.409L593.908 166.511L600.626 172.504C604.439 175.954 609.704 179.222 612.428 179.948ZM163.044 296.522C168.854 297.248 173.938 298.338 174.664 298.883C175.209 299.609 175.027 302.333 174.119 305.056C172.485 309.959 172.485 309.959 155.418 309.596C139.803 309.414 137.079 309.777 127.093 314.68C113.475 321.217 102.036 332.838 91.8684 350.451C81.519 368.609 71.7142 392.94 74.9825 392.94C75.7087 392.94 81.519 382.046 87.8739 368.972C100.947 342.098 110.933 330.296 128.182 321.943C144.705 313.954 172.848 309.777 170.67 315.588C169.943 317.222 165.222 318.311 154.328 318.856C143.253 319.401 138.169 320.49 135.808 322.669C133.085 325.575 133.993 325.756 150.334 325.756H167.764L166.493 330.659L165.222 335.743L144.705 335.017L124.188 334.472L114.565 344.459C103.67 355.717 90.779 380.23 80.9742 408.375C72.0773 433.977 59.1859 481.914 59.1859 489.54C59.1859 505.338 71.3511 520.046 93.321 530.577C100.402 534.027 106.394 537.296 106.394 537.84C106.394 538.385 104.76 545.285 102.581 553.093L98.768 567.256L84.7872 559.993C47.3839 540.564 31.7689 518.593 34.3109 489.359C37.0345 458.49 61.0016 380.23 79.1586 343.006C92.9578 314.861 105.123 301.969 122.735 296.522C128.545 294.888 149.426 294.706 163.044 296.522ZM792.726 302.151C796.539 304.148 801.986 308.688 804.891 312.501C809.612 318.675 809.975 320.309 810.338 338.83C810.702 362.617 814.514 373.148 824.138 377.688L830.311 380.593L836.121 410.917C843.929 450.682 849.194 473.017 868.622 549.098C883.148 606.296 889.321 632.806 888.595 633.714C888.05 634.077 882.966 632.443 877.337 629.901C861.541 623.001 837.211 619.188 809.975 619.369C754.597 619.914 662.541 640.433 616.422 662.585C600.263 670.211 603.349 669.667 631.129 659.861C673.435 644.79 716.649 636.256 768.759 632.443C823.411 628.63 857.365 632.08 881.695 644.064L893.497 649.875L897.492 668.94C899.67 679.472 901.486 690.73 901.486 694.18L901.668 700.172L894.587 693.817C873.525 674.751 833.398 662.585 813.788 669.304C803.076 672.935 803.62 675.659 815.785 677.838C842.113 682.74 846.834 684.011 856.639 688.369C868.985 693.817 880.969 705.983 888.232 719.964L893.134 729.769L887.868 739.211C882.966 748.29 882.058 749.017 859.181 760.456C795.087 792.414 749.694 803.672 685.6 804.035C657.094 804.217 652.373 803.854 640.208 800.04C624.956 795.138 613.154 788.601 598.447 776.435C577.203 759.004 570.667 747.927 565.764 720.872C563.949 710.704 560.681 695.088 558.683 685.827C555.415 670.938 545.792 607.385 543.25 584.506C542.705 579.422 541.253 567.619 540.345 558.177C536.532 523.133 533.99 502.251 528.543 464.664C526.182 447.596 523.277 425.988 522.369 416.546L520.735 399.296L531.266 366.611C537.076 348.635 542.342 332.293 542.887 330.296C543.25 328.298 544.702 323.214 545.792 319.038L547.789 311.23L555.233 316.677C563.767 323.033 573.209 323.759 585.737 319.401C596.813 315.588 597.902 315.769 602.078 323.94C611.338 341.917 621.506 340.646 644.747 318.493C661.27 302.877 665.809 300.335 678.156 300.335C694.86 300.335 704.483 308.688 712.836 330.477C719.191 346.638 722.822 351.177 732.99 355.354C739.163 357.896 739.526 358.44 741.705 371.333C742.976 378.777 745.518 393.304 747.334 403.835C754.415 441.785 760.225 473.925 761.859 483.73C763.13 491.538 763.312 488.814 762.767 470.111C761.859 445.598 756.231 409.464 748.423 376.78C745.881 366.248 744.066 357.533 744.429 357.169C744.792 356.806 748.605 354.627 752.962 352.448C763.675 347.001 767.306 339.556 767.306 322.488C767.306 310.14 767.67 308.688 772.572 303.785C778.927 297.611 783.103 297.248 792.726 302.151ZM191.368 305.783C203.897 313.409 204.986 324.667 196.997 364.796C191.913 390.58 192.639 418.906 198.631 430.346C207.347 447.233 228.59 446.143 246.929 427.985C256.37 418.543 259.275 414.004 280.337 372.059C294.681 343.551 300.492 333.927 307.21 327.572C315.017 319.946 315.743 319.583 317.741 322.851C325.367 335.198 330.814 341.009 337.895 344.096C347.155 348.09 348.971 347.909 371.848 339.011C398.539 328.843 415.425 331.385 424.503 346.819C428.861 354.446 433.219 374.783 433.219 388.583C433.219 402.564 436.305 419.633 440.118 425.988C444.295 433.069 453.736 437.246 461.907 435.611C476.795 432.888 490.958 422.175 504.939 403.109C510.93 394.938 513.109 397.117 508.933 407.104C504.212 417.998 471.893 530.577 464.086 562.898C455.007 600.304 448.471 623.546 435.761 662.04L425.774 692.364L416.333 699.99C392.729 718.875 378.022 722.325 327.909 721.235C287.237 720.146 287.237 720.146 325.003 728.861C355.689 735.943 388.371 731.948 408.162 718.875C411.975 716.333 415.425 714.335 415.97 714.335C417.604 714.335 406.528 734.309 399.628 743.751C393.637 751.922 393.092 752.285 381.108 753.738C374.39 754.464 352.42 755.19 332.448 755.19H296.134L263.088 747.201C244.75 742.661 229.316 739.756 228.59 740.483C226.048 743.025 237.85 750.469 250.56 754.464C281.79 763.906 294.863 765.904 326.093 765.904C354.781 765.904 362.225 764.996 382.924 758.64C388.916 756.825 385.829 761.183 377.477 766.63C362.225 776.072 351.513 778.614 335.534 776.435C327.727 775.346 309.752 774.075 295.226 773.53C265.086 772.44 238.94 767.538 201.173 756.098C150.697 740.846 109.662 713.246 95.1367 684.738C86.4213 667.488 86.0582 640.977 94.0472 619.914C95.6814 615.556 96.0445 615.919 100.765 626.269C108.391 642.975 118.922 654.596 136.353 666.217C161.409 682.922 183.198 691.093 213.52 695.269C225.503 696.904 220.964 693.817 200.447 686.372C169.217 675.114 141.618 658.772 125.096 641.704C115.291 631.717 100.947 607.022 100.947 600.122C100.947 597.943 104.578 583.054 109.117 566.711C113.657 550.551 119.83 528.217 122.917 517.322C126.003 506.246 136.898 468.659 147.247 433.796C157.597 398.751 169.399 355.898 173.575 338.467C182.472 301.243 182.108 302.151 183.924 302.151C184.65 302.151 188.1 303.785 191.368 305.783ZM159.231 345.73C161.954 347.182 162.499 348.817 161.591 352.63C159.231 362.072 147.792 401.293 139.076 429.256C134.356 444.69 126.185 472.472 120.92 490.993C115.654 509.514 111.115 525.13 110.57 525.856C110.207 526.583 105.123 524.585 99.4943 521.498C75.7087 508.243 68.9907 499.89 70.6248 485.001C71.8958 472.472 88.237 416.364 96.4076 395.664C107.12 368.972 120.738 348.635 129.998 345.185C134.9 343.369 155.599 343.914 159.231 345.73ZM900.034 358.622C915.285 366.248 925.635 378.777 937.8 403.472C946.515 421.085 950.147 431.435 954.323 451.046C957.046 463.575 957.773 465.027 957.773 459.035C957.954 449.593 952.507 428.53 945.608 411.461C942.702 404.38 940.524 398.388 941.068 398.388C941.431 398.388 945.426 406.014 949.784 415.093C974.84 467.025 969.03 506.064 930.356 548.009C921.096 558.177 914.741 563.08 903.483 568.89C893.134 574.338 888.776 575.79 888.232 574.156C884.782 563.08 884.963 561.99 892.952 557.996C916.375 546.193 938.889 524.585 945.063 508.243C950.873 492.99 952.87 476.467 950.691 463.211C948.694 450.682 945.608 440.333 943.247 437.609C940.887 435.067 941.25 437.609 944.337 449.23C951.055 474.288 945.789 505.519 932.171 521.317C923.275 531.667 904.21 547.283 893.316 553.093C884.963 557.451 884.419 557.451 882.966 551.822C882.058 548.735 883.874 547.283 893.134 542.743C914.378 532.393 936.348 503.522 939.253 482.277C941.976 462.667 924.909 417.272 910.383 404.925C895.313 392.033 868.259 386.767 851.918 393.667C842.839 397.48 842.295 397.298 841.024 392.214C840.479 389.854 839.389 386.585 838.845 385.133C836.484 378.777 878.972 372.604 894.95 377.143C897.673 377.869 899.852 377.688 899.852 376.78C899.852 374.419 885.871 369.154 875.885 368.064C869.167 367.156 867.17 366.43 868.077 364.432C868.622 362.98 869.53 359.711 870.075 357.169C871.346 352.63 871.527 352.63 882.24 353.901C888.232 354.446 896.402 356.625 900.034 358.622ZM875.34 402.201C894.223 405.651 905.844 414.185 914.378 431.072C919.643 441.422 927.087 468.477 927.087 477.375C927.087 486.998 918.917 503.704 908.567 515.506C901.305 523.677 884.056 536.388 880.061 536.388C878.972 536.388 876.611 530.94 874.614 524.04C868.622 503.34 845.381 410.372 845.381 407.104C845.381 404.925 847.379 403.654 852.281 402.927C859.725 401.656 864.446 400.748 864.628 400.385C864.628 400.385 869.53 401.111 875.34 402.201Z" fill="black"/>
<path d="M415.062 51.0273C415.062 53.751 416.696 59.3799 418.875 63.7378C422.143 70.4562 424.685 72.6352 435.761 78.0825C448.107 84.2562 448.107 83.5299 434.671 73.1799C431.222 70.4562 425.774 63.3746 422.506 57.201C419.419 51.2089 416.333 46.1246 415.788 46.1246C415.425 46.1246 415.062 48.3036 415.062 51.0273Z" fill="black"/>
<path d="M460.454 95.6957C460.454 98.0562 466.446 104.23 474.072 109.859C477.522 112.401 477.522 112.401 474.253 106.954C467.354 95.8773 460.454 90.2483 460.454 95.6957Z" fill="black"/>
<path d="M549.786 129.106C545.065 140.546 543.613 148.172 545.065 153.983C546.7 161.064 548.697 159.793 547.971 151.804C547.607 148.172 549.06 139.819 551.057 133.283C555.415 119.301 554.87 117.304 549.786 129.106Z" fill="black"/>
<path d="M388.553 168.69C383.287 177.769 380.745 190.298 384.014 192.114C385.284 193.022 386.011 191.025 386.011 185.94C386.011 181.401 387.826 174.682 390.55 169.417C395.997 158.34 394.908 157.796 388.553 168.69Z" fill="black"/>
<path d="M304.305 202.827C299.765 204.825 299.765 204.825 306.12 205.369C324.096 207.004 328.272 208.275 345.339 218.806C360.773 228.067 381.29 236.601 383.287 234.604C384.377 233.514 338.258 205.369 331.54 203.009C323.732 200.104 310.296 199.922 304.305 202.827Z" fill="black"/>
<path d="M500.218 216.264C497.494 223.527 498.765 228.43 503.668 229.156C509.296 230.064 513.109 226.433 513.109 220.622C513.109 210.998 503.486 207.73 500.218 216.264ZM505.846 221.53C505.846 224.617 501.852 224.072 500.763 220.804C500.399 219.533 501.307 218.625 502.941 218.625C504.576 218.625 505.846 219.896 505.846 221.53Z" fill="black"/>
<path d="M426.501 236.601C422.143 237.327 418.149 238.417 417.604 239.143C415.425 241.322 435.398 240.233 445.021 237.69L454.099 235.33H444.113C438.666 235.33 430.677 236.056 426.501 236.601Z" fill="black"/>
<path d="M253.465 291.256C251.286 293.435 250.197 295.796 250.742 296.704C251.468 297.793 252.92 297.43 254.555 295.796C258.549 291.801 261.091 292.346 260.365 297.067C260.002 299.609 258.004 301.606 255.281 302.333C251.105 303.604 251.105 303.604 256.552 303.785C263.996 303.967 267.628 298.519 264.541 291.983C262.18 286.717 258.367 286.354 253.465 291.256Z" fill="black"/>
<path d="M458.094 300.698C456.46 301.606 455.007 304.33 455.007 306.872C455.007 310.867 455.733 311.411 460.091 310.867C463.904 310.504 465.175 309.233 465.538 305.601C466.083 300.154 462.815 297.975 458.094 300.698ZM462.27 304.693C462.27 306.69 458.82 307.417 457.731 305.783C457.186 304.875 457.912 303.967 459.365 303.967C460.999 303.967 462.27 304.33 462.27 304.693Z" fill="black"/>
<path d="M497.313 315.225C492.047 322.125 493.681 331.204 500.218 331.204C504.394 331.204 509.478 325.575 509.478 321.035C509.478 314.135 501.126 310.322 497.313 315.225ZM502.578 324.304C500.944 325.938 499.855 325.938 498.221 324.304C496.405 322.488 496.405 321.58 498.584 320.309C502.215 318.13 505.483 321.398 502.578 324.304Z" fill="black"/>
<path d="M490.232 369.698C487.508 374.964 482.424 382.954 478.611 387.493C469.533 398.751 468.262 401.111 472.438 398.751C479.882 394.756 486.055 385.314 493.681 366.975C497.857 357.169 495.86 358.804 490.232 369.698Z" fill="black"/>
<path d="M242.571 379.685C238.395 387.493 232.04 396.935 228.409 400.567C222.78 406.559 222.417 407.467 225.503 407.467C229.316 407.467 234.4 402.927 239.484 394.756C242.571 389.854 252.013 365.704 250.923 365.704C250.56 365.704 246.747 372.059 242.571 379.685Z" fill="black"/>
<path d="M641.297 207.911C644.747 211.725 656.912 213.54 666.535 211.543C672.89 210.272 673.253 210.09 669.259 209.001C666.717 208.456 658.91 207.367 651.647 206.459C639.482 205.006 638.755 205.188 641.297 207.911Z" fill="black"/>
<path d="M775.114 215.175C773.48 216.809 774.025 218.08 776.748 220.44C780.743 223.527 780.016 227.704 775.295 227.704C773.843 227.704 772.754 225.888 772.754 223.709C772.754 220.804 772.209 220.259 770.756 221.712C768.033 224.435 769.485 231.517 773.117 233.696C775.295 235.148 777.474 234.967 780.743 233.514C784.737 231.698 785.463 230.246 785.463 224.254C785.463 218.806 784.556 216.446 782.014 214.993C777.656 212.814 777.474 212.814 775.114 215.175Z" fill="black"/>
<path d="M572.482 254.214C568.488 258.209 574.117 279.998 580.472 285.083C583.195 287.443 602.441 293.254 603.531 292.346C603.894 291.983 601.352 290.711 597.721 289.44C589.55 286.717 581.016 277.093 578.293 267.288C575.206 255.485 573.935 252.761 572.482 254.214Z" fill="black"/>
<path d="M801.805 265.654C797.81 273.28 805.436 279.272 811.428 273.461C813.788 271.101 814.514 268.559 813.607 266.017C812.154 261.114 804.528 260.933 801.805 265.654Z" fill="black"/>
<path d="M668.714 271.646C654.733 276.548 656.912 278.183 671.982 274.006C679.972 271.827 687.053 271.101 693.408 271.827C702.668 272.917 702.668 272.917 697.402 270.375C689.958 266.925 681.243 267.288 668.714 271.646Z" fill="black"/>
<path d="M718.464 309.959C718.283 315.588 723.367 323.396 729.722 327.39C738.8 332.838 739.526 332.111 732.627 324.304C729.177 320.49 724.638 314.861 722.459 311.956C719.372 307.78 718.464 307.417 718.464 309.959Z" fill="black"/>
<path d="M834.85 349.725C835.395 350.996 838.118 352.267 841.024 352.63L846.289 352.993L841.75 350.451C836.121 347.001 833.942 346.819 834.85 349.725Z" fill="black"/>
<path d="M50.1075 487.362C50.1075 509.514 69.1722 537.477 90.5974 546.375C100.947 550.733 98.5865 546.919 85.695 538.748C67.9012 527.309 54.4651 505.519 53.3757 486.272C52.6494 475.377 50.1075 476.104 50.1075 487.362Z" fill="black"/>
<path d="M698.492 320.672C695.223 330.659 692.5 376.235 693.771 396.572C695.223 419.996 700.852 463.03 705.754 488.996C710.294 513.146 723.003 563.261 727.724 575.79C731.537 586.14 739.889 594.493 746.244 594.493C751.691 594.493 759.317 588.501 762.949 581.419C766.943 573.793 764.946 573.067 757.865 579.785C741.705 595.038 737.711 588.864 722.822 525.493C708.296 463.393 701.397 409.101 701.215 356.261C701.034 333.383 700.852 314.861 700.67 314.861C700.489 314.861 699.581 317.585 698.492 320.672Z" fill="black"/>
<path d="M786.008 345.73C786.19 377.869 782.558 387.311 777.474 368.79C776.022 363.706 773.661 355.717 772.39 351.177L770.03 343.006L769.485 350.088C768.759 358.622 774.024 381.138 777.474 384.769C780.924 388.038 785.282 386.404 787.461 380.775C789.458 375.509 789.458 342.28 787.461 332.111C786.371 326.846 786.008 330.659 786.008 345.73Z" fill="black"/>
<path d="M605.71 350.996C605.71 370.425 626.227 506.246 634.761 542.743C642.931 577.969 652.01 599.033 664.175 609.927C675.251 620.096 685.419 617.372 690.866 603.027C693.408 596.49 693.408 569.798 690.866 544.377C688.868 523.859 674.706 437.427 669.985 416.546C666.717 402.201 656.186 369.154 655.278 370.061C654.733 370.425 656.549 380.956 659.091 393.304C661.633 405.469 666.172 430.346 669.259 448.322C672.346 466.298 676.703 491.175 679.245 503.704C687.416 545.83 689.232 578.333 684.692 593.948C681.243 605.388 677.611 607.204 670.53 600.485C654.37 585.051 647.471 560.356 629.314 451.046C624.23 420.54 619.327 392.396 618.42 388.401C617.512 384.406 615.514 374.238 613.88 365.704C612.246 357.169 610.612 348.817 610.067 347.001C608.433 341.372 605.71 343.733 605.71 350.996Z" fill="black"/>
<path d="M558.502 357.533C558.502 359.167 560.136 369.154 562.133 379.867C564.13 390.58 569.033 418.543 573.209 441.967C582.106 492.99 598.265 575.064 599.718 576.335C600.263 576.88 600.263 570.161 599.536 561.446C595.36 503.704 566.309 354.809 559.409 354.809C558.865 354.809 558.502 356.08 558.502 357.533Z" fill="black"/>
<path d="M630.403 381.138C632.219 421.085 655.823 551.822 663.086 563.08C665.809 567.438 669.985 568.527 671.982 565.44C672.527 564.533 671.438 562.172 669.622 560.356C665.991 556.725 665.809 555.998 644.566 441.967C638.755 411.461 633.127 381.319 631.856 374.783L629.495 362.98L630.403 381.138Z" fill="black"/>
<path d="M735.35 389.672C741.16 425.08 747.515 476.83 748.423 497.348C749.694 523.133 748.423 541.835 745.518 538.93C743.339 536.751 737.892 514.598 729.177 473.017C719.009 424.172 717.375 423.627 723.73 471.019C727.724 500.98 735.35 536.025 739.526 544.196C742.795 550.551 747.334 550.006 750.965 542.743C754.233 536.206 754.415 493.354 751.147 464.664C748.423 439.969 737.892 383.862 735.895 383.862C735.169 383.862 734.806 386.585 735.35 389.672Z" fill="black"/>
<path d="M531.448 398.025C531.266 406.922 537.984 453.043 545.61 496.622C548.697 512.964 553.055 537.84 555.597 551.822C564.493 601.393 570.304 621.73 580.29 636.619C587.19 646.969 594.816 650.601 600.807 646.606C604.257 644.427 605.347 641.704 606.254 633.351C607.525 620.64 606.799 619.188 603.894 628.448C598.992 643.701 595.36 643.519 587.008 627.54C576.295 606.659 576.84 609.201 534.171 402.927C531.811 391.306 531.629 390.943 531.448 398.025Z" fill="black"/>
<path d="M819.78 412.006C819.598 412.914 819.598 414.185 819.598 414.73C819.78 418.18 834.124 496.804 840.116 527.309C847.56 565.077 848.105 571.433 844.292 593.585C843.021 600.304 843.202 600.667 845.926 598.306C847.742 597.035 850.284 591.225 851.918 585.777C856.094 571.614 854.46 552.185 846.289 520.954C842.658 506.972 835.94 477.556 831.582 455.767C824.319 420.359 820.688 406.559 819.78 412.006Z" fill="black"/>
<path d="M772.753 417.817C772.753 420.722 774.751 437.609 777.293 455.585C788.732 537.114 794.542 563.806 803.983 579.604C810.338 589.954 819.598 597.035 824.319 595.219C826.68 594.311 825.772 592.496 819.961 585.777C807.07 570.161 803.257 557.814 792 490.085C785.1 449.048 778.927 417.272 777.111 414.548C775.114 411.28 772.753 413.096 772.753 417.817Z" fill="black"/>
<path d="M798.173 447.777C798.173 459.58 804.891 502.069 810.157 523.677C817.42 553.638 825.772 567.438 831.945 559.267C833.398 557.269 834.487 552.73 834.305 549.28L834.124 542.743L832.127 547.646C831.037 550.551 829.585 552.73 828.677 552.73C827.406 552.73 822.867 538.385 818.327 520.954C817.42 516.959 813.97 499.709 810.883 482.822C804.71 449.048 802.349 440.151 799.807 440.151C798.899 440.151 798.173 443.601 798.173 447.777Z" fill="black"/>
<path d="M735.532 672.39C720.098 674.206 679.245 684.556 652.01 693.454C608.433 707.798 568.488 732.311 581.016 737.214C582.469 737.759 591.729 734.127 601.715 729.043C643.113 708.161 691.592 693.635 756.412 682.559C777.837 678.927 787.824 676.022 786.008 674.206C783.648 671.846 750.057 670.756 735.532 672.39Z" fill="black"/>
<path d="M605.71 698.175C586.463 704.53 583.013 704.712 579.201 698.719C576.477 694.725 575.751 694.543 574.48 697.085C573.209 699.083 573.753 701.443 575.751 704.712C578.474 708.888 579.745 709.251 587.553 708.525C592.818 707.98 602.623 704.53 611.52 700.172C629.132 691.638 627.316 690.912 605.71 698.175Z" fill="black"/>
<path d="M766.399 699.083C732.445 703.622 703.939 710.885 678.337 721.598C662.722 728.135 641.297 741.027 634.761 747.927C628.951 754.101 628.769 764.088 634.398 771.896C643.113 784.061 663.449 789.146 704.665 788.964C739.345 788.964 764.22 784.788 788.005 774.983C790.366 774.075 791.092 774.256 790.184 775.709C788.368 778.614 807.07 771.896 820.325 764.814C834.487 757.369 841.205 750.469 843.747 741.027C848.286 723.959 836.303 708.525 813.788 702.714C802.894 699.809 775.84 697.812 766.399 699.083ZM806.707 714.335C825.045 718.33 834.85 729.225 830.129 740.664C827.224 747.746 813.607 758.096 795.45 766.993C771.846 778.614 760.951 780.43 719.191 780.43C671.619 780.43 653.099 776.435 643.476 764.451C638.937 758.822 639.482 755.19 646.018 749.743C664.72 733.946 710.112 719.056 760.951 711.793C769.122 710.704 796.357 712.156 806.707 714.335Z" fill="black"/>
<path d="M799.081 729.588C793.089 731.948 779.653 737.214 769.122 741.209C758.591 745.204 742.795 749.925 733.716 751.74C712.109 755.917 671.982 756.098 659.636 751.922C651.465 749.38 650.92 749.38 651.465 752.104C651.828 753.738 656.186 757.188 661.088 759.73C669.622 763.906 671.982 764.269 697.402 764.269C727.724 764.088 741.342 761.546 770.575 749.743C787.461 742.843 812.699 729.043 812.699 726.683C812.699 724.685 811.246 724.867 799.081 729.588Z" fill="black"/>
<path d="M816.33 733.583C812.88 736.125 800.352 743.206 788.368 749.38C776.566 755.372 767.67 760.819 768.759 761.183C771.482 762.09 806.162 747.927 813.243 743.025C821.777 737.214 828.314 728.68 824.138 728.861C823.23 729.043 819.78 731.04 816.33 733.583Z" fill="black"/>
<path d="M296.134 357.169C293.229 359.53 293.592 359.893 300.855 360.801C312.112 362.254 315.199 366.793 315.199 381.864C315.199 394.575 311.93 415.456 307.028 434.704C302.67 451.954 282.153 513.69 266.72 556.18C259.457 576.517 253.828 593.585 254.191 593.948C255.281 595.038 256.007 593.04 275.072 545.467C298.676 486.998 319.556 420.54 324.277 389.854C326.819 374.238 324.64 364.069 317.559 358.622C312.112 354.264 301.218 353.538 296.134 357.169Z" fill="black"/>
<path d="M183.742 368.609C176.298 384.951 135.082 519.138 122.735 567.256C117.47 587.956 118.196 605.933 124.551 611.198C139.803 623.546 156.507 595.764 186.466 507.517C196.634 477.738 199.176 468.477 195.544 474.651C194.637 476.104 189.734 488.633 184.65 502.251C165.041 555.998 148.881 589.954 138.532 599.759C126.548 610.835 127.638 593.948 141.982 542.561C147.429 522.588 158.504 481.551 166.493 451.046C174.482 420.54 182.29 391.125 183.742 385.677C186.648 375.872 189.916 358.44 188.826 358.44C188.645 358.44 186.284 362.98 183.742 368.609Z" fill="black"/>
<path d="M365.675 378.596C358.957 382.046 351.876 390.217 353.873 392.214C354.418 392.759 358.412 391.125 362.951 388.583C371.848 383.317 379.837 382.59 385.284 386.404C388.19 388.764 388.734 391.125 388.553 405.106C388.19 430.346 372.938 482.277 341.345 566.711C328.453 601.211 318.83 629.175 318.83 632.08C318.83 632.443 319.556 632.443 320.464 631.898C326.638 628.085 375.843 502.433 392.366 448.322C403.805 410.554 403.078 382.59 390.368 376.78C383.65 373.693 373.301 374.419 365.675 378.596Z" fill="black"/>
<path d="M284.695 424.717C281.245 432.161 260.365 502.251 261.273 503.159C262.725 504.43 285.784 439.425 288.69 425.988C290.324 419.088 287.6 418.18 284.695 424.717Z" fill="black"/>
<path d="M327.909 456.856C303.397 521.498 275.253 614.285 272.348 640.433C271.622 648.059 272.167 651.146 275.072 655.867C277.251 658.954 280.156 661.677 281.608 661.677C284.15 661.677 283.969 661.133 281.427 657.138C278.885 653.143 278.703 651.146 280.701 641.159C286.329 611.925 295.589 580.33 329.724 473.743C340.255 440.514 343.342 427.44 340.8 427.44C339.892 427.44 334.263 440.696 327.909 456.856Z" fill="black"/>
<path d="M248.018 439.606C233.492 470.838 199.176 564.351 191.732 593.404C186.103 615.556 187.555 630.446 196.271 639.161C206.257 649.148 218.785 642.067 228.953 621.004C238.94 600.304 269.262 513.509 267.264 511.511C266.901 511.148 265.449 513.872 264.359 517.685C256.189 543.106 238.758 587.775 230.224 605.025C214.791 636.619 203.897 643.338 199.176 624.454C196.271 613.196 199.357 599.759 215.336 553.275C234.582 497.53 251.105 447.233 252.194 440.514C253.647 433.433 251.286 432.888 248.018 439.606Z" fill="black"/>
<path d="M415.607 441.059C414.517 443.056 408.707 457.764 402.715 473.743C376.751 542.743 358.412 605.933 353.328 643.156C349.697 669.667 357.323 685.283 374.027 685.283C385.466 685.283 388.19 682.377 379.111 680.017C374.753 678.746 369.851 675.659 366.764 672.209C362.044 666.58 362.044 665.672 362.951 649.875C364.404 625.361 374.39 586.504 405.257 485.909C417.422 446.143 421.054 430.709 415.607 441.059Z" fill="black"/>
<path d="M456.278 460.488C453.736 467.751 449.56 481.006 446.836 490.085C444.294 498.983 435.942 525.675 428.498 549.28C414.517 593.948 395.089 660.951 395.089 664.219C395.452 671.119 411.249 631.354 428.135 581.783C455.733 499.89 469.169 447.414 462.451 447.414C461.544 447.414 458.82 453.406 456.278 460.488Z" fill="black"/>
<path d="M421.78 528.217C419.238 535.298 412.157 555.635 406.346 573.612C400.355 591.588 391.821 614.648 387.282 624.817C382.742 635.167 379.656 643.519 380.382 643.519C383.469 643.519 389.824 634.44 395.815 621.73C403.26 605.388 423.051 546.193 426.138 531.122C429.224 515.143 427.227 513.872 421.78 528.217Z" fill="black"/>
<path d="M332.629 558.177C319.92 595.583 311.567 615.193 301.944 630.627C297.223 638.072 293.955 644.609 294.318 645.154C295.952 646.606 307.936 634.077 312.475 626.269C318.649 615.919 328.816 588.683 336.261 563.08C345.702 530.033 343.342 526.764 332.629 558.177Z" fill="black"/>
<path d="M104.578 662.585C104.578 678.564 144.16 705.983 189.008 720.872C204.441 726.138 201.718 723.596 177.569 709.796C153.42 696.177 128.364 679.29 116.925 669.122C105.849 659.135 104.578 658.409 104.578 662.585Z" fill="black"/>
<path d="M228.953 723.233C231.314 727.227 259.82 734.49 285.966 737.94C301.218 739.938 314.291 741.39 314.654 741.027C315.017 740.483 309.752 738.848 303.034 737.396C231.132 720.69 226.774 719.964 228.953 723.233Z" fill="black"/>
<path d="M721.006 100.598C719.191 102.596 718.283 105.319 719.009 107.135C720.098 110.04 720.462 110.04 723.548 107.135C725.182 105.501 727.361 104.775 727.906 105.501C730.266 107.68 729.177 111.311 725.727 113.127C723.185 114.58 721.188 114.217 717.556 111.311C713.017 107.68 712.836 107.68 712.836 111.13C712.836 120.754 728.087 124.022 734.442 115.851C739.163 109.859 739.345 105.319 734.624 100.598C730.085 96.0588 725.182 96.0588 721.006 100.598Z" fill="black"/>
</svg>
